<?xml version="1.0" encoding="UTF-8" standalone="no"?>
<svg
xmlns="http://www.w3.org/2000/svg"
version="1.0"
width="1600" height="1600"
id="4-cube_t03.svg">
<g style="stroke:#000000;stroke-width:10.0;stroke-opacity:0.50;">
<line x1="1382.836" y1="558.582" x2="1041.418" y2="700.001"/>
<line x1="1382.836" y1="558.582" x2="1041.418" y2="417.162"/>
<line x1="1382.836" y1="558.582" x2="1241.416" y2="217.164"/>
<line x1="1382.836" y1="558.582" x2="1524.255" y2="700.001"/>
<line x1="1382.836" y1="558.582" x2="1524.255" y2="899.999"/>
<line x1="1382.836" y1="558.582" x2="1382.836" y2="1041.418"/>
<line x1="1041.418" y1="1382.836" x2="700.001" y2="1524.255"/>
<line x1="1041.418" y1="1382.836" x2="700.001" y2="1241.416"/>
<line x1="1041.418" y1="1382.836" x2="899.999" y2="1041.418"/>
<line x1="1041.418" y1="1382.836" x2="1382.836" y2="1041.418"/>
<line x1="1041.418" y1="1382.836" x2="1382.836" y2="1241.416"/>
<line x1="1041.418" y1="1382.836" x2="1241.416" y2="1382.836"/>
<line x1="1041.418" y1="700.001" x2="700.001" y2="558.582"/>
<line x1="1041.418" y1="700.001" x2="899.999" y2="358.584"/>
<line x1="1041.418" y1="700.001" x2="700.001" y2="1041.418"/>
<line x1="1041.418" y1="700.001" x2="1182.838" y2="1041.418"/>
<line x1="1041.418" y1="700.001" x2="1041.418" y2="1182.838"/>
<line x1="700.001" y1="1524.255" x2="358.584" y2="1382.836"/>
<line x1="700.001" y1="1524.255" x2="558.582" y2="1182.838"/>
<line x1="700.001" y1="1524.255" x2="558.581" y2="1382.836"/>
<line x1="700.001" y1="1524.255" x2="899.999" y2="1524.255"/>
<line x1="1041.418" y1="417.162" x2="700.001" y2="558.582"/>
<line x1="1041.418" y1="417.162" x2="899.999" y2="75.745"/>
<line x1="1041.418" y1="417.162" x2="1182.838" y2="558.582"/>
<line x1="1041.418" y1="417.162" x2="1041.418" y2="899.999"/>
<line x1="700.001" y1="1241.416" x2="358.584" y2="1382.836"/>
<line x1="700.001" y1="1241.416" x2="558.582" y2="899.999"/>
<line x1="700.001" y1="1241.416" x2="1041.418" y2="899.999"/>
<line x1="700.001" y1="1241.416" x2="899.999" y2="1241.416"/>
<line x1="700.001" y1="558.582" x2="558.582" y2="217.164"/>
<line x1="700.001" y1="558.582" x2="358.584" y2="899.999"/>
<line x1="700.001" y1="558.582" x2="358.584" y2="700.001"/>
<line x1="700.001" y1="558.582" x2="700.001" y2="1041.418"/>
<line x1="358.584" y1="1382.836" x2="217.164" y2="1041.418"/>
<line x1="358.584" y1="1382.836" x2="217.164" y2="1241.416"/>
<line x1="358.584" y1="1382.836" x2="558.581" y2="1382.836"/>
<line x1="1241.416" y1="217.164" x2="899.999" y2="358.584"/>
<line x1="1241.416" y1="217.164" x2="899.999" y2="75.745"/>
<line x1="1241.416" y1="217.164" x2="1382.836" y2="358.584"/>
<line x1="1241.416" y1="217.164" x2="1041.418" y2="217.164"/>
<line x1="899.999" y1="1041.418" x2="558.582" y2="1182.838"/>
<line x1="899.999" y1="1041.418" x2="558.582" y2="899.999"/>
<line x1="899.999" y1="1041.418" x2="1241.416" y2="700.001"/>
<line x1="899.999" y1="1041.418" x2="1241.416" y2="899.999"/>
<line x1="899.999" y1="1041.418" x2="899.999" y2="558.582"/>
<line x1="899.999" y1="358.584" x2="558.582" y2="217.164"/>
<line x1="899.999" y1="358.584" x2="558.582" y2="700.001"/>
<line x1="899.999" y1="358.584" x2="700.001" y2="358.584"/>
<line x1="558.582" y1="1182.838" x2="217.164" y2="1041.418"/>
<line x1="558.582" y1="1182.838" x2="417.162" y2="1041.418"/>
<line x1="558.582" y1="1182.838" x2="558.582" y2="700.001"/>
<line x1="899.999" y1="75.745" x2="558.582" y2="217.164"/>
<line x1="899.999" y1="75.745" x2="1041.418" y2="217.164"/>
<line x1="899.999" y1="75.745" x2="700.001" y2="75.745"/>
<line x1="558.582" y1="899.999" x2="217.164" y2="1041.418"/>
<line x1="558.582" y1="899.999" x2="899.999" y2="558.582"/>
<line x1="558.582" y1="899.999" x2="417.162" y2="558.582"/>
<line x1="558.582" y1="899.999" x2="558.582" y2="417.162"/>
<line x1="558.582" y1="217.164" x2="217.164" y2="558.582"/>
<line x1="558.582" y1="217.164" x2="217.164" y2="358.584"/>
<line x1="558.582" y1="217.164" x2="358.584" y2="217.164"/>
<line x1="217.164" y1="1041.418" x2="75.745" y2="899.999"/>
<line x1="217.164" y1="1041.418" x2="75.745" y2="700.001"/>
<line x1="217.164" y1="1041.418" x2="217.164" y2="558.582"/>
<line x1="1524.255" y1="700.001" x2="1382.836" y2="1041.418"/>
<line x1="1524.255" y1="700.001" x2="1182.838" y2="558.582"/>
<line x1="1524.255" y1="700.001" x2="1382.836" y2="358.584"/>
<line x1="1524.255" y1="700.001" x2="1524.255" y2="899.999"/>
<line x1="1382.836" y1="1041.418" x2="1041.418" y2="899.999"/>
<line x1="1382.836" y1="1041.418" x2="1241.416" y2="700.001"/>
<line x1="1382.836" y1="1041.418" x2="1382.836" y2="1241.416"/>
<line x1="1382.836" y1="1041.418" x2="1241.416" y2="1382.836"/>
<line x1="700.001" y1="1041.418" x2="558.581" y2="1382.836"/>
<line x1="700.001" y1="1041.418" x2="358.584" y2="899.999"/>
<line x1="700.001" y1="1041.418" x2="558.582" y2="700.001"/>
<line x1="700.001" y1="1041.418" x2="1182.838" y2="1041.418"/>
<line x1="700.001" y1="1041.418" x2="1041.418" y2="1182.838"/>
<line x1="558.581" y1="1382.836" x2="217.164" y2="1241.416"/>
<line x1="558.581" y1="1382.836" x2="417.162" y2="1041.418"/>
<line x1="558.581" y1="1382.836" x2="1041.418" y2="1382.836"/>
<line x1="558.581" y1="1382.836" x2="899.999" y2="1524.255"/>
<line x1="1182.838" y1="558.582" x2="1041.418" y2="899.999"/>
<line x1="1182.838" y1="558.582" x2="1041.418" y2="217.164"/>
<line x1="1182.838" y1="558.582" x2="700.001" y2="558.582"/>
<line x1="1041.418" y1="899.999" x2="899.999" y2="558.582"/>
<line x1="1041.418" y1="899.999" x2="558.582" y2="899.999"/>
<line x1="1041.418" y1="899.999" x2="899.999" y2="1241.416"/>
<line x1="358.584" y1="899.999" x2="217.164" y2="1241.416"/>
<line x1="358.584" y1="899.999" x2="217.164" y2="558.582"/>
<line x1="358.584" y1="899.999" x2="358.584" y2="700.001"/>
<line x1="217.164" y1="1241.416" x2="75.745" y2="899.999"/>
<line x1="217.164" y1="1241.416" x2="217.164" y2="1041.418"/>
<line x1="1382.836" y1="358.584" x2="1241.416" y2="700.001"/>
<line x1="1382.836" y1="358.584" x2="1041.418" y2="217.164"/>
<line x1="1382.836" y1="358.584" x2="1382.836" y2="558.582"/>
<line x1="1241.416" y1="700.001" x2="899.999" y2="558.582"/>
<line x1="1241.416" y1="700.001" x2="1241.416" y2="899.999"/>
<line x1="558.582" y1="700.001" x2="417.162" y2="1041.418"/>
<line x1="558.582" y1="700.001" x2="217.164" y2="558.582"/>
<line x1="558.582" y1="700.001" x2="1041.418" y2="700.001"/>
<line x1="558.582" y1="700.001" x2="700.001" y2="358.584"/>
<line x1="417.162" y1="1041.418" x2="75.745" y2="899.999"/>
<line x1="417.162" y1="1041.418" x2="899.999" y2="1041.418"/>
<line x1="1041.418" y1="217.164" x2="899.999" y2="558.582"/>
<line x1="1041.418" y1="217.164" x2="558.582" y2="217.164"/>
<line x1="1041.418" y1="217.164" x2="700.001" y2="75.745"/>
<line x1="899.999" y1="558.582" x2="417.162" y2="558.582"/>
<line x1="899.999" y1="558.582" x2="558.582" y2="417.162"/>
<line x1="217.164" y1="558.582" x2="75.745" y2="899.999"/>
<line x1="217.164" y1="558.582" x2="217.164" y2="358.584"/>
<line x1="217.164" y1="558.582" x2="358.584" y2="217.164"/>
<line x1="75.745" y1="899.999" x2="75.745" y2="700.001"/>
<line x1="1524.255" y1="899.999" x2="1382.836" y2="1241.416"/>
<line x1="1524.255" y1="899.999" x2="1182.838" y2="1041.418"/>
<line x1="1524.255" y1="899.999" x2="1382.836" y2="1041.418"/>
<line x1="1382.836" y1="1241.416" x2="1241.416" y2="899.999"/>
<line x1="1382.836" y1="1241.416" x2="1241.416" y2="1382.836"/>
<line x1="1182.838" y1="1041.418" x2="1041.418" y2="1382.836"/>
<line x1="1182.838" y1="1041.418" x2="1041.418" y2="1182.838"/>
<line x1="1041.418" y1="1382.836" x2="899.999" y2="1524.255"/>
<line x1="700.001" y1="558.582" x2="558.582" y2="899.999"/>
<line x1="700.001" y1="558.582" x2="1041.418" y2="899.999"/>
<line x1="558.582" y1="899.999" x2="899.999" y2="1241.416"/>
<line x1="358.584" y1="700.001" x2="217.164" y2="1041.418"/>
<line x1="358.584" y1="700.001" x2="217.164" y2="358.584"/>
<line x1="358.584" y1="700.001" x2="700.001" y2="1041.418"/>
<line x1="217.164" y1="1041.418" x2="558.581" y2="1382.836"/>
<line x1="1382.836" y1="558.582" x2="1241.416" y2="899.999"/>
<line x1="1382.836" y1="558.582" x2="1041.418" y2="217.164"/>
<line x1="1241.416" y1="899.999" x2="899.999" y2="558.582"/>
<line x1="1041.418" y1="700.001" x2="899.999" y2="1041.418"/>
<line x1="1041.418" y1="700.001" x2="700.001" y2="358.584"/>
<line x1="899.999" y1="1041.418" x2="558.582" y2="700.001"/>
<line x1="558.582" y1="217.164" x2="417.162" y2="558.582"/>
<line x1="558.582" y1="217.164" x2="700.001" y2="75.745"/>
<line x1="417.162" y1="558.582" x2="75.745" y2="700.001"/>
<line x1="417.162" y1="558.582" x2="558.582" y2="417.162"/>
<line x1="217.164" y1="358.584" x2="75.745" y2="700.001"/>
<line x1="217.164" y1="358.584" x2="358.584" y2="217.164"/>
<line x1="75.745" y1="700.001" x2="217.164" y2="558.582"/>
<line x1="1382.836" y1="1041.418" x2="1041.418" y2="1182.838"/>
<line x1="1241.416" y1="1382.836" x2="899.999" y2="1524.255"/>
<line x1="1241.416" y1="1382.836" x2="899.999" y2="1241.416"/>
<line x1="1041.418" y1="1182.838" x2="899.999" y2="1524.255"/>
<line x1="1041.418" y1="899.999" x2="700.001" y2="1041.418"/>
<line x1="899.999" y1="1241.416" x2="558.581" y2="1382.836"/>
<line x1="1041.418" y1="217.164" x2="700.001" y2="358.584"/>
<line x1="899.999" y1="558.582" x2="558.582" y2="700.001"/>
<line x1="700.001" y1="358.584" x2="358.584" y2="217.164"/>
<line x1="700.001" y1="75.745" x2="558.582" y2="417.162"/>
<line x1="700.001" y1="75.745" x2="358.584" y2="217.164"/>
<line x1="558.582" y1="417.162" x2="217.164" y2="558.582"/>
</g>
<g style="stroke:#000000;stroke-width:5.0;fill:#ff0000">
<circle cx="700.001" cy="1524.255" r="30.4"/>
<circle cx="1041.418" cy="417.162" r="30.4"/>
<circle cx="700.001" cy="1241.416" r="30.4"/>
<circle cx="358.584" cy="1382.836" r="30.4"/>
<circle cx="1241.416" cy="217.164" r="30.4"/>
<circle cx="899.999" cy="358.584" r="30.4"/>
<circle cx="558.582" cy="1182.838" r="30.4"/>
<circle cx="899.999" cy="75.745" r="30.4"/>
<circle cx="1524.255" cy="700.001" r="30.4"/>
<circle cx="1182.838" cy="558.582" r="30.4"/>
<circle cx="358.584" cy="899.999" r="30.4"/>
<circle cx="217.164" cy="1241.416" r="30.4"/>
<circle cx="1382.836" cy="358.584" r="30.4"/>
<circle cx="1241.416" cy="700.001" r="30.4"/>
<circle cx="417.162" cy="1041.418" r="30.4"/>
<circle cx="75.745" cy="899.999" r="30.4"/>
<circle cx="1524.255" cy="899.999" r="30.4"/>
<circle cx="1382.836" cy="1241.416" r="30.4"/>
<circle cx="1182.838" cy="1041.418" r="30.4"/>
<circle cx="358.584" cy="700.001" r="30.4"/>
<circle cx="1241.416" cy="899.999" r="30.4"/>
<circle cx="417.162" cy="558.582" r="30.4"/>
<circle cx="217.164" cy="358.584" r="30.4"/>
<circle cx="75.745" cy="700.001" r="30.4"/>
<circle cx="1241.416" cy="1382.836" r="30.4"/>
<circle cx="1041.418" cy="1182.838" r="30.4"/>
<circle cx="899.999" cy="1524.255" r="30.4"/>
<circle cx="899.999" cy="1241.416" r="30.4"/>
<circle cx="700.001" cy="358.584" r="30.4"/>
<circle cx="700.001" cy="75.745" r="30.4"/>
<circle cx="558.582" cy="417.162" r="30.4"/>
<circle cx="358.584" cy="217.164" r="30.4"/>
</g>
<g style="stroke:#000000;stroke-width:5.0;fill:#ff7f00">
<circle cx="1382.836" cy="558.582" r="30.4"/>
<circle cx="1041.418" cy="1382.836" r="30.4"/>
<circle cx="1041.418" cy="700.001" r="30.4"/>
<circle cx="700.001" cy="558.582" r="30.4"/>
<circle cx="899.999" cy="1041.418" r="30.4"/>
<circle cx="558.582" cy="899.999" r="30.4"/>
<circle cx="558.582" cy="217.164" r="30.4"/>
<circle cx="217.164" cy="1041.418" r="30.4"/>
<circle cx="1382.836" cy="1041.418" r="30.4"/>
<circle cx="700.001" cy="1041.418" r="30.4"/>
<circle cx="558.581" cy="1382.836" r="30.4"/>
<circle cx="1041.418" cy="899.999" r="30.4"/>
<circle cx="558.582" cy="700.001" r="30.4"/>
<circle cx="1041.418" cy="217.164" r="30.4"/>
<circle cx="899.999" cy="558.582" r="30.4"/>
<circle cx="217.164" cy="558.582" r="30.4"/>
</g>
</svg>
